<mxfile host="app.diagrams.net" agent="Mozilla/5.0 (Windows NT 10.0; Win64; x64) AppleWebKit/537.36 (KHTML, like Gecko) Chrome/136.0.0.0 Safari/537.36" version="27.1.3">
  <diagram name="PÃ¡gina-1" id="woZnku5UgwKLu-zaIFTg">
    <mxGraphModel dx="1188" dy="748" grid="1" gridSize="10" guides="1" tooltips="1" connect="1" arrows="1" fold="1" page="1" pageScale="1" pageWidth="827" pageHeight="1169" math="0" shadow="0">
      <root>
        <mxCell id="0" />
        <mxCell id="1" parent="0" />
        <mxCell id="0MXNYFPmU-MDolFlKpFQ-1" value="" style="rounded=0;whiteSpace=wrap;html=1;fillColor=#f5f5f5;fontColor=#333333;strokeColor=#666666;" vertex="1" parent="1">
          <mxGeometry x="180" y="30" width="453" height="170" as="geometry" />
        </mxCell>
        <mxCell id="0MXNYFPmU-MDolFlKpFQ-2" value="Development Environment" style="text;html=1;align=center;verticalAlign=middle;whiteSpace=wrap;rounded=0;" vertex="1" parent="1">
          <mxGeometry x="293" y="30" width="220" height="30" as="geometry" />
        </mxCell>
        <mxCell id="0MXNYFPmU-MDolFlKpFQ-7" style="edgeStyle=orthogonalEdgeStyle;rounded=0;orthogonalLoop=1;jettySize=auto;html=1;entryX=0.5;entryY=0;entryDx=0;entryDy=0;" edge="1" parent="1" source="0MXNYFPmU-MDolFlKpFQ-3" target="0MXNYFPmU-MDolFlKpFQ-5">
          <mxGeometry relative="1" as="geometry" />
        </mxCell>
        <mxCell id="0MXNYFPmU-MDolFlKpFQ-3" value="Visual Studio Code" style="rounded=0;whiteSpace=wrap;html=1;" vertex="1" parent="1">
          <mxGeometry x="203" y="70" width="170" height="40" as="geometry" />
        </mxCell>
        <mxCell id="0MXNYFPmU-MDolFlKpFQ-5" value="PlatformIO Extension" style="rounded=0;whiteSpace=wrap;html=1;" vertex="1" parent="1">
          <mxGeometry x="203" y="140" width="170" height="40" as="geometry" />
        </mxCell>
        <mxCell id="0MXNYFPmU-MDolFlKpFQ-6" value="Git Version Control" style="rounded=0;whiteSpace=wrap;html=1;" vertex="1" parent="1">
          <mxGeometry x="440" y="100" width="170" height="40" as="geometry" />
        </mxCell>
        <mxCell id="0MXNYFPmU-MDolFlKpFQ-8" value="" style="rounded=0;whiteSpace=wrap;html=1;fillColor=#f5f5f5;fontColor=#333333;strokeColor=#666666;" vertex="1" parent="1">
          <mxGeometry x="180" y="240" width="453" height="170" as="geometry" />
        </mxCell>
        <mxCell id="0MXNYFPmU-MDolFlKpFQ-9" value="Build System" style="text;html=1;align=center;verticalAlign=middle;whiteSpace=wrap;rounded=0;" vertex="1" parent="1">
          <mxGeometry x="293" y="240" width="220" height="30" as="geometry" />
        </mxCell>
        <mxCell id="0MXNYFPmU-MDolFlKpFQ-10" style="edgeStyle=orthogonalEdgeStyle;rounded=0;orthogonalLoop=1;jettySize=auto;html=1;entryX=0.5;entryY=0;entryDx=0;entryDy=0;" edge="1" parent="1" source="0MXNYFPmU-MDolFlKpFQ-11" target="0MXNYFPmU-MDolFlKpFQ-12">
          <mxGeometry relative="1" as="geometry" />
        </mxCell>
        <mxCell id="0MXNYFPmU-MDolFlKpFQ-15" style="edgeStyle=orthogonalEdgeStyle;rounded=0;orthogonalLoop=1;jettySize=auto;html=1;curved=1;" edge="1" parent="1" source="0MXNYFPmU-MDolFlKpFQ-11" target="0MXNYFPmU-MDolFlKpFQ-13">
          <mxGeometry relative="1" as="geometry" />
        </mxCell>
        <mxCell id="0MXNYFPmU-MDolFlKpFQ-11" value="PlatformIO Core" style="rounded=0;whiteSpace=wrap;html=1;" vertex="1" parent="1">
          <mxGeometry x="203" y="280" width="170" height="40" as="geometry" />
        </mxCell>
        <mxCell id="0MXNYFPmU-MDolFlKpFQ-12" value="Arduino Framework" style="rounded=0;whiteSpace=wrap;html=1;" vertex="1" parent="1">
          <mxGeometry x="203" y="350" width="170" height="40" as="geometry" />
        </mxCell>
        <mxCell id="0MXNYFPmU-MDolFlKpFQ-13" value="Library Dependencies" style="rounded=0;whiteSpace=wrap;html=1;" vertex="1" parent="1">
          <mxGeometry x="440" y="350" width="170" height="40" as="geometry" />
        </mxCell>
        <mxCell id="0MXNYFPmU-MDolFlKpFQ-14" style="edgeStyle=orthogonalEdgeStyle;rounded=0;orthogonalLoop=1;jettySize=auto;html=1;entryX=0.5;entryY=0;entryDx=0;entryDy=0;" edge="1" parent="1" source="0MXNYFPmU-MDolFlKpFQ-5" target="0MXNYFPmU-MDolFlKpFQ-11">
          <mxGeometry relative="1" as="geometry" />
        </mxCell>
        <mxCell id="0MXNYFPmU-MDolFlKpFQ-17" value="" style="rounded=0;whiteSpace=wrap;html=1;fillColor=#f5f5f5;fontColor=#333333;strokeColor=#666666;" vertex="1" parent="1">
          <mxGeometry x="180" y="30" width="453" height="170" as="geometry" />
        </mxCell>
        <mxCell id="0MXNYFPmU-MDolFlKpFQ-18" value="Development Environment" style="text;html=1;align=center;verticalAlign=middle;whiteSpace=wrap;rounded=0;" vertex="1" parent="1">
          <mxGeometry x="293" y="30" width="220" height="30" as="geometry" />
        </mxCell>
        <mxCell id="0MXNYFPmU-MDolFlKpFQ-19" style="edgeStyle=orthogonalEdgeStyle;rounded=0;orthogonalLoop=1;jettySize=auto;html=1;entryX=0.5;entryY=0;entryDx=0;entryDy=0;" edge="1" parent="1" source="0MXNYFPmU-MDolFlKpFQ-20" target="0MXNYFPmU-MDolFlKpFQ-21">
          <mxGeometry relative="1" as="geometry" />
        </mxCell>
        <mxCell id="0MXNYFPmU-MDolFlKpFQ-20" value="Visual Studio Code" style="rounded=0;whiteSpace=wrap;html=1;" vertex="1" parent="1">
          <mxGeometry x="203" y="70" width="170" height="40" as="geometry" />
        </mxCell>
        <mxCell id="0MXNYFPmU-MDolFlKpFQ-21" value="PlatformIO Extension" style="rounded=0;whiteSpace=wrap;html=1;" vertex="1" parent="1">
          <mxGeometry x="203" y="140" width="170" height="40" as="geometry" />
        </mxCell>
        <mxCell id="0MXNYFPmU-MDolFlKpFQ-22" value="Git Version Control" style="rounded=0;whiteSpace=wrap;html=1;" vertex="1" parent="1">
          <mxGeometry x="440" y="100" width="170" height="40" as="geometry" />
        </mxCell>
        <mxCell id="0MXNYFPmU-MDolFlKpFQ-23" value="" style="rounded=0;whiteSpace=wrap;html=1;fillColor=#f5f5f5;fontColor=#333333;strokeColor=#666666;" vertex="1" parent="1">
          <mxGeometry x="180" y="450" width="453" height="170" as="geometry" />
        </mxCell>
        <mxCell id="0MXNYFPmU-MDolFlKpFQ-24" value="Target Hardware" style="text;html=1;align=center;verticalAlign=middle;whiteSpace=wrap;rounded=0;" vertex="1" parent="1">
          <mxGeometry x="293" y="450" width="220" height="30" as="geometry" />
        </mxCell>
        <mxCell id="0MXNYFPmU-MDolFlKpFQ-25" style="edgeStyle=orthogonalEdgeStyle;rounded=0;orthogonalLoop=1;jettySize=auto;html=1;entryX=0.5;entryY=0;entryDx=0;entryDy=0;curved=1;" edge="1" parent="1" source="0MXNYFPmU-MDolFlKpFQ-26" target="0MXNYFPmU-MDolFlKpFQ-27">
          <mxGeometry relative="1" as="geometry" />
        </mxCell>
        <mxCell id="0MXNYFPmU-MDolFlKpFQ-29" style="edgeStyle=orthogonalEdgeStyle;rounded=0;orthogonalLoop=1;jettySize=auto;html=1;entryX=0.5;entryY=0;entryDx=0;entryDy=0;curved=1;" edge="1" parent="1" source="0MXNYFPmU-MDolFlKpFQ-26" target="0MXNYFPmU-MDolFlKpFQ-28">
          <mxGeometry relative="1" as="geometry" />
        </mxCell>
        <mxCell id="0MXNYFPmU-MDolFlKpFQ-26" value="ESP32" style="rounded=0;whiteSpace=wrap;html=1;" vertex="1" parent="1">
          <mxGeometry x="321.5" y="480" width="170" height="40" as="geometry" />
        </mxCell>
        <mxCell id="0MXNYFPmU-MDolFlKpFQ-27" value="VL53L0X and MPU6050" style="rounded=0;whiteSpace=wrap;html=1;" vertex="1" parent="1">
          <mxGeometry x="203" y="560" width="170" height="40" as="geometry" />
        </mxCell>
        <mxCell id="0MXNYFPmU-MDolFlKpFQ-28" value="RC Communication System" style="rounded=0;whiteSpace=wrap;html=1;" vertex="1" parent="1">
          <mxGeometry x="440" y="560" width="170" height="40" as="geometry" />
        </mxCell>
        <mxCell id="0MXNYFPmU-MDolFlKpFQ-30" style="edgeStyle=orthogonalEdgeStyle;rounded=0;orthogonalLoop=1;jettySize=auto;html=1;entryX=0.805;entryY=0.025;entryDx=0;entryDy=0;entryPerimeter=0;curved=1;" edge="1" parent="1" source="0MXNYFPmU-MDolFlKpFQ-13" target="0MXNYFPmU-MDolFlKpFQ-26">
          <mxGeometry relative="1" as="geometry" />
        </mxCell>
        <mxCell id="0MXNYFPmU-MDolFlKpFQ-31" style="edgeStyle=orthogonalEdgeStyle;rounded=0;orthogonalLoop=1;jettySize=auto;html=1;entryX=0.25;entryY=1;entryDx=0;entryDy=0;curved=1;" edge="1" parent="1" source="0MXNYFPmU-MDolFlKpFQ-12" target="0MXNYFPmU-MDolFlKpFQ-24">
          <mxGeometry relative="1" as="geometry">
            <Array as="points">
              <mxPoint x="288" y="440" />
              <mxPoint x="348" y="440" />
            </Array>
          </mxGeometry>
        </mxCell>
      </root>
    </mxGraphModel>
  </diagram>
</mxfile>
